<svg width="14" height="15" viewBox="0 0 14 15" fill="none" xmlns="http://www.w3.org/2000/svg">
<path d="M16.3267 12.8016C16.05 13.345 15.708 13.8632 15.3062 14.348C14.7694 14.9937 14.3286 15.4399 13.9908 15.6882C13.466 16.094 12.9022 16.3027 12.2995 16.3145C11.8677 16.3145 11.3459 16.211 10.7382 16.0005C10.1285 15.7909 9.5687 15.6882 9.05592 15.6882C8.51916 15.6882 7.94341 15.7909 7.32668 16.0005C6.71095 16.211 6.21317 16.3212 5.83234 16.3313C5.25559 16.3524 4.67884 16.1386 4.10409 15.6882C3.73725 15.4188 3.27845 14.9558 2.72769 14.3009C2.13795 13.603 1.65316 12.7907 1.27333 11.8672C0.866508 10.868 0.662598 9.90161 0.662598 8.96552C0.662598 7.8939 0.937478 6.96875 1.48824 6.19428C1.9048 5.58605 2.50034 5.07841 3.21748 4.72027C3.92464 4.36307 4.7319 4.17073 5.55646 4.163C6.01626 4.163 6.61899 4.28253 7.36566 4.51824C8.11234 4.75395 8.59213 4.87348 8.80104 4.87348C8.95897 4.87348 9.48974 4.7329 10.3933 4.45426C11.246 4.19583 11.9657 4.08892 12.5554 4.13101C14.1547 4.2396 15.3552 4.76994 16.1538 5.72624C14.7244 6.45608 14.0178 7.4772 14.0317 8.7879C14.0437 9.80901 14.4846 10.6584 15.3482 11.3327C15.73 11.6404 16.1755 11.8866 16.6626 12.0592C16.5566 12.3176 16.4447 12.5643 16.3267 12.8016V12.8016ZM12.6613 0.653493C12.6613 1.45321 12.3135 2.20074 11.6228 2.89186C10.7872 3.71347 9.77761 4.18909 8.68309 4.11417C8.66877 4.01361 8.66176 3.9124 8.6621 3.81112C8.6621 3.04255 9.05793 2.22094 9.76462 1.54834C10.1165 1.20825 10.5643 0.924556 11.107 0.698951C11.6488 0.476713 12.1606 0.353809 12.6424 0.332764C12.6554 0.440515 12.6613 0.547425 12.6613 0.653493V0.653493Z" fill="white"/>
</svg>
