<svg width="17" height="16" viewBox="0 0 17 16" fill="none" xmlns="http://www.w3.org/2000/svg">
<path d="M6.09095 15.999C5.46251 15.9703 4.87113 15.7395 4.4389 15.3542C3.92179 14.9352 3.46034 14.47 3.06269 13.9669C2.44153 13.2177 1.95052 12.3977 1.60453 11.5316C1.21296 10.5999 1.00696 9.61999 0.994879 8.63163C0.964459 7.66185 1.24959 6.70353 1.8194 5.86044C2.23674 5.25275 2.83201 4.74528 3.54841 4.38646C4.25689 4.02917 5.06535 3.83685 5.89106 3.82919C6.51352 3.86021 7.12521 3.98004 7.70002 4.18359C8.15876 4.35363 8.64048 4.47316 9.1352 4.53882C9.6809 4.44254 10.2141 4.30157 10.7273 4.11793C11.3346 3.9182 11.9776 3.80635 12.6292 3.7871C12.7161 3.7871 12.8021 3.7871 12.885 3.79552C14.3142 3.83003 15.6435 4.42097 16.483 5.39493C15.8278 5.69009 15.2826 6.1325 14.908 6.67299C14.5334 7.21348 14.3442 7.83087 14.3612 8.45654C14.3547 8.93496 14.4686 9.40912 14.6955 9.84775C14.9223 10.2864 15.257 10.6795 15.6774 11.0013C16.0602 11.3083 16.5058 11.5545 16.9927 11.7278C16.8927 11.9803 16.7778 12.2244 16.6559 12.4702C16.379 13.0134 16.0375 13.5315 15.6365 14.0166C15.2573 14.5025 14.8159 14.9519 14.3202 15.3567C13.8681 15.7346 13.2654 15.9575 12.6292 15.9822C12.0899 15.9621 11.56 15.8555 11.0681 15.6682C10.5376 15.4736 9.96749 15.3669 9.38905 15.3542C8.79429 15.3641 8.20731 15.4701 7.66004 15.6665C7.18736 15.8461 6.68236 15.958 6.1659 15.9973L6.09095 15.999ZM9.23914 3.7871C9.16418 3.7871 9.08922 3.7871 9.01427 3.77953C8.9985 3.67932 8.99015 3.57839 8.98928 3.47732C9.02197 2.63648 9.41211 1.83349 10.0886 1.21458C10.4671 0.858879 10.9257 0.57015 11.4379 0.365204C11.9152 0.158253 12.4368 0.033753 12.972 -0.000976562C12.987 0.109299 12.987 0.217049 12.987 0.319748C12.9729 1.14737 12.6037 1.94275 11.9476 2.55892C11.6299 2.91771 11.2228 3.21358 10.7549 3.42576C10.287 3.63793 9.76965 3.76127 9.23914 3.7871Z" fill="white" fill-opacity="0.9"/>
</svg>
