<svg width="20" height="20" viewBox="0 0 20 20" fill="none" xmlns="http://www.w3.org/2000/svg">
<path fill-rule="evenodd" clip-rule="evenodd" d="M10 16.6665C13.6819 16.6665 16.6667 13.6818 16.6667 9.99984C16.6667 6.31794 13.6819 3.33317 10 3.33317C6.31812 3.33317 3.33335 6.31794 3.33335 9.99984C3.33335 13.6818 6.31812 16.6665 10 16.6665ZM10 18.3332C14.6024 18.3332 18.3334 14.6022 18.3334 9.99984C18.3334 5.39746 14.6024 1.6665 10 1.6665C5.39765 1.6665 1.66669 5.39746 1.66669 9.99984C1.66669 14.6022 5.39765 18.3332 10 18.3332Z" fill="#67676F"/>
<path d="M10 8.3335C10 7.87326 10.3731 7.50016 10.8334 7.50016H11.6667C12.1269 7.50016 12.5 7.12707 12.5 6.66683C12.5 6.2066 12.1269 5.8335 11.6667 5.8335H10.8334C9.4526 5.8335 8.33335 6.95279 8.33335 8.3335V10.0002H7.50002C7.03979 10.0002 6.66669 10.3732 6.66669 10.8335C6.66669 11.2937 7.03978 11.6668 7.50002 11.6668H8.33335V16.6668C8.33335 17.1271 8.70644 17.5002 9.16669 17.5002C9.62694 17.5002 10 17.1271 10 16.6668V11.6668H11.6667C12.1269 11.6668 12.5 11.2937 12.5 10.8335C12.5 10.3732 12.1269 10.0002 11.6667 10.0002H10V8.3335Z" fill="#67676F"/>
</svg>
