<svg width="56" height="56" viewBox="0 0 56 56" fill="none" xmlns="http://www.w3.org/2000/svg">
<rect width="56" height="56" rx="28" fill="#354BFF"/>
<path fill-rule="evenodd" clip-rule="evenodd" d="M30.0909 23.2652C30.4968 22.8906 31.1294 22.9159 31.504 23.3217L34.7348 26.8217C35.0884 27.2047 35.0884 27.7952 34.7348 28.1782L31.504 31.6783C31.1294 32.0841 30.4968 32.1094 30.091 31.7348C29.6851 31.3602 29.6598 30.7276 30.0344 30.3217L31.716 28.5L22 28.5C21.4477 28.5 21 28.0523 21 27.5C21 26.9477 21.4477 26.5 22 26.5L31.716 26.5L30.0344 24.6783C29.6598 24.2725 29.6851 23.6398 30.0909 23.2652Z" fill="#FCFCFD"/>
</svg>
