<svg width="20" height="20" viewBox="0 0 20 20" fill="none" xmlns="http://www.w3.org/2000/svg">
<path fill-rule="evenodd" clip-rule="evenodd" d="M13.3333 3.33317H6.66666C4.82571 3.33317 3.33332 4.82555 3.33332 6.6665V13.3332C3.33332 15.1741 4.82571 16.6665 6.66666 16.6665H13.3333C15.1742 16.6665 16.6667 15.1741 16.6667 13.3332V6.6665C16.6667 4.82555 15.1742 3.33317 13.3333 3.33317ZM6.66666 1.6665C3.90523 1.6665 1.66666 3.90508 1.66666 6.6665V13.3332C1.66666 16.0946 3.90523 18.3332 6.66666 18.3332H13.3333C16.0947 18.3332 18.3333 16.0946 18.3333 13.3332V6.6665C18.3333 3.90508 16.0947 1.6665 13.3333 1.6665H6.66666Z" fill="#67676F"/>
<path d="M14.1667 6.66667C14.6269 6.66667 15 6.29357 15 5.83333C15 5.3731 14.6269 5 14.1667 5C13.7064 5 13.3333 5.3731 13.3333 5.83333C13.3333 6.29357 13.7064 6.66667 14.1667 6.66667Z" fill="#67676F"/>
<path fill-rule="evenodd" clip-rule="evenodd" d="M14.1667 10.0002C14.1667 12.3013 12.3012 14.1668 10 14.1668C7.69883 14.1668 5.83334 12.3013 5.83334 10.0002C5.83334 7.69898 7.69883 5.8335 10 5.8335C12.3012 5.8335 14.1667 7.69898 14.1667 10.0002ZM12.5 10.0002C12.5 11.3809 11.3808 12.5002 10 12.5002C8.61926 12.5002 7.50001 11.3809 7.50001 10.0002C7.50001 8.61941 8.61926 7.50016 10 7.50016C11.3808 7.50016 12.5 8.61941 12.5 10.0002Z" fill="#67676F"/>
</svg>
