<svg width="18" height="18" viewBox="0 0 18 18" fill="none" xmlns="http://www.w3.org/2000/svg">
<path opacity="0.8" d="M5 7.22222H3C2.46957 7.22222 1.96086 7.40952 1.58579 7.74292C1.21071 8.07632 1 8.5285 1 9V15.2222C1 15.6937 1.21071 16.1459 1.58579 16.4793C1.96086 16.8127 2.46957 17 3 17H15C15.5304 17 16.0391 16.8127 16.4142 16.4793C16.7893 16.1459 17 15.6937 17 15.2222V9C17 8.5285 16.7893 8.07632 16.4142 7.74292C16.0391 7.40952 15.5304 7.22222 15 7.22222H13M5 7.22222V4.55556C5 3.61256 5.42143 2.70819 6.17157 2.0414C6.92172 1.3746 7.93913 1 9 1V1C10.0609 1 11.0783 1.3746 11.8284 2.0414C12.5786 2.70819 13 3.61256 13 4.55556V7.22222M5 7.22222H13M9 10.7778V13.4444" stroke="#354BFF" stroke-width="2" stroke-linecap="round" stroke-linejoin="round"/>
</svg>
